# xmcd
#
# Track frame offsets:
#	182
#	14680
#	25635
#	44545
#	54770
#	64922
#	81337
#	95477
#	104252
#	115292
#	124142
#	134432
#	147431
#	155615
#	164172
#	175862
#	191187
#	201245
#	214287
#	225232
#	240012
#	254605
#
# Disc length: 3566 seconds
#
# Revision: 1
# Processed by: cddbd v1.5.2PL0 Copyright (c) Steve Scherf et al.
# Submitted via: audiograbber 1.83.01
#
DISCID=400dec16
DTITLE=Tammy Wynnette - Reflective Souvenirs
DYEAR=1994
DGENRE=Country
TTITLE0=No Charge
TTITLE1=Crying In The Chapel
TTITLE2=Honey
TTITLE3=Have A Little Faith
TTITLE4=I Believe
TTITLE5=How Great Thou Art
TTITLE6=He
TTITLE7=We Love To Sing About Jesus
TTITLE8=Talkin' About Jesus
TTITLE9=Show Him That You Love Him
TTITLE10=Jesus, Send A Sang
TTITLE11=Old Fashioned Singing
TTITLE12=When Jesus Takes His Children Home
TTITLE13=Everything's Gonna Be Alright
TTITLE14=Let's All Do Down To The River
TTITLE15=The World Needs A Melody
TTITLE16=Let's All Sing Ourselves To Glory
TTITLE17=I'd Like To See Jesus On The Midnight Special
TTITLE18=Noah And The Ark
TTITLE19=Me And Jesus
TTITLE20=Ozark Mountain Lullaby
TTITLE21=Goodnight Cowboy, Goodnight
EXTD=
EXTT0=
EXTT1=
EXTT2=
EXTT3=
EXTT4=
EXTT5=
EXTT6=
EXTT7=
EXTT8=
EXTT9=
EXTT10=
EXTT11=
EXTT12=
EXTT13=
EXTT14=
EXTT15=
EXTT16=
EXTT17=
EXTT18=
EXTT19=
EXTT20=
EXTT21=
PLAYORDER=
